{"title":"Pitch Perfect 2012 DVDRip","uid":8092315,"size":676042559,"categoryP":"video","categoryS":"movies","magnet":"?xt=urn:btih:622fe7e35bd4b6fca83bad74f21dcb223de4daa0&amp;dn=Pitch+Perfect+2012+DVDRip&amp;tr=udp%3A%2F%2Ftracker.openbittorrent.com%3A80&amp;tr=udp%3A%2F%2Fopen.demonii.com%3A1337&amp;tr=udp%3A%2F%2Ftracker.coppersurfer.tk%3A6969&amp;tr=udp%3A%2F%2Fexodus.desync.com%3A6969","seeders":15,"leechers":3,"uploader":"Armani-1","files":4,"time":1359748565,"description":"IMDb : http://www.imdb.com/title/tt1981677\n\nLanguage : English\n\nScreens :  &lt;a href=&quot;\nhttp://www.piczend.com/image/1359744379_vlcsnap-2013-02-01-10h45m30s148.png&quot; rel=&quot;nofollow&quot; target=&quot;_NEW&quot;&gt;\nhttp://www.piczend.com/image/1359744379_vlcsnap-2013-02-01-10h45m30s148.png&lt;/a&gt; &lt;a href=&quot;\nhttp://www.piczend.com/image/1359744379_vlcsnap-2013-02-01-10h45m37s218.png&quot; rel=&quot;nofollow&quot; target=&quot;_NEW&quot;&gt;\nhttp://www.piczend.com/image/1359744379_vlcsnap-2013-02-01-10h45m37s218.png&lt;/a&gt; &lt;a href=&quot;\nhttp://www.piczend.com/image/1359744379_vlcsnap-2013-02-01-10h45m45s40.png&quot; rel=&quot;nofollow&quot; target=&quot;_NEW&quot;&gt;\nhttp://www.piczend.com/image/1359744379_vlcsnap-2013-02-01-10h45m45s40.png&lt;/a&gt; &lt;a href=&quot;\nhttp://www.piczend.com/image/1359744379_vlcsnap-2013-02-01-10h45m55s137.png&quot; rel=&quot;nofollow&quot; target=&quot;_NEW&quot;&gt;\nhttp://www.piczend.com/image/1359744379_vlcsnap-2013-02-01-10h45m55s137.png&lt;/a&gt; &lt;a href=&quot;\nhttp://www.piczend.com/image/1359744379_vlcsnap-2013-02-01-10h46m01s199.png&quot; rel=&quot;nofollow&quot; target=&quot;_NEW&quot;&gt;\nhttp://www.piczend.com/image/1359744379_vlcsnap-2013-02-01-10h46m01s199.png&lt;/a&gt; &lt;a href=&quot;\nhttp://www.piczend.com/image/1359744379_vlcsnap-2013-02-01-10h46m08s17.png&quot; rel=&quot;nofollow&quot; target=&quot;_NEW&quot;&gt;\nhttp://www.piczend.com/image/1359744379_vlcsnap-2013-02-01-10h46m08s17.png&lt;/a&gt;\n\nInfo:\nFormat : MPEG-4\nFormat profile : Base Media / Version 2\nCodec ID : mp42\nFile size : 326 MiB\nDuration : 57mn 36s\nOverall bit rate mode : Variable\nOverall bit rate : 790 Kbps\nEncoded date : UTC 2013-02-01 17:23:18\nTagged date : UTC 2013-02-01 17:28:36\nWriting application : HandBrake 0.9.8 2012071700\n\nVideo\nID : 1\nFormat : AVC\nFormat/Info : Advanced Video Codec\nFormat profile : &lt;a class=&quot;__cf_email__&quot; href=&quot;/cdn-cgi/l/email-protection&quot; data-cfemail=&quot;460b272f28060a746874&quot;&gt;[email&amp;#160;protected]&lt;/a&gt;&lt;script cf-hash='f9e31' type=&quot;text/javascript&quot;&gt;\n/* &lt;![CDATA[ */!function(){try{var t=&quot;currentScript&quot;in document?document.currentScript:function(){for(var t=document.getElementsByTagName(&quot;script&quot;),e=t.length;e--;)if(t[e].getAttribute(&quot;cf-hash&quot;))return t[e]}();if(t&amp;&amp;t.previousSibling){var e,r,n,i,c=t.previousSibling,a=c.getAttribute(&quot;data-cfemail&quot;);if(a){for(e=&quot;&quot;,r=parseInt(a.substr(0,2),16),n=2;a.length-n;n+=2)i=parseInt(a.substr(n,2),16)^r,e+=String.fromCharCode(i);e=document.createTextNode(e),c.parentNode.replaceChild(e,c)}}}catch(u){}}();/* ]]&gt; */&lt;/script&gt;\nFormat settings, CABAC : Yes\nFormat settings, ReFrames : 4 frames\nCodec ID : avc1\nCodec ID/Info : Advanced Video Coding\nDuration : 57mn 36s\nBit rate mode : Variable\nBit rate : 625 Kbps\nWidth : 624 pixels\nHeight : 336 pixels\nDisplay aspect ratio : 1.85:1\nFrame rate mode : Variable\nFrame rate : 23.976 fps\nMinimum frame rate : 23.974 fps\nMaximum frame rate : 90 000.000 fps\nColor space : YUV\nChroma subsampling : 4:2:0\nBit depth : 8 bits\nScan type : Progressive\nBits/(Pixel*Frame) : 0.124\nStream size : 258 MiB (79%)\nWriting library : x264 core 120\nEncoding settings : cabac=1 / ref=1 / deblock=1:0:0 / analyse=0x1:0x111 / me=hex / subme=2 / psy=1 / psy_rd=1.00:0.00 / mixed_ref=0 / me_range=16 / chroma_me=1 / trellis=0 / 8x8dct=0 / cqm=0 / deadzone=21,11 / fast_pskip=1 / chroma_qp_offset=0 / threads=6 / sliced_threads=0 / nr=0 / decimate=1 / interlaced=0 / bluray_compat=0 / constrained_intra=0 / bframes=3 / b_pyramid=2 / b_adapt=1 / b_bias=0 / direct=1 / weightb=1 / open_gop=0 / weightp=1 / keyint=240 / keyint_min=24 / scenecut=40 / intra_refresh=0 / rc_lookahead=10 / rc=crf / mbtree=1 / crf=20.0 / qcomp=0.60 / qpmin=3 / qpmax=69 / qpstep=4 / ip_ratio=1.40 / aq=1:1.00\nEncoded date : UTC 2013-02-01 17:23:18\nTagged date : UTC 2013-02-01 17:28:36\nColor primaries : BT.601 NTSC\nTransfer characteristics : BT.709\nMatrix coefficients : BT.601\n\nAudio\nID : 2\nFormat : AAC\nFormat/Info : Advanced Audio Codec\nFormat profile : LC\nCodec ID : 40\nDuration : 57mn 36s\nBit rate mode : Variable\nBit rate : 160 Kbps\nMaximum bit rate : 321 Kbps\nChannel(s) : 2 channels\nChannel positions : Front: L R\nSampling rate : 48.0 KHz\nCompression mode : Lossy\nDelay relative to video : 83ms\nStream size : 65.9 MiB (20%)\nEncoded date : UTC 2013-02-01 17:23:18\nTagged date : UTC 2013-02-01 17:28:36\n\n","torrent":{"xt":"urn:btih:622fe7e35bd4b6fca83bad74f21dcb223de4daa0","amp;dn":"Pitch+Perfect+2012+DVDRip","amp;tr":["udp%3A%2F%2Ftracker.openbittorrent.com%3A80","udp%3A%2F%2Fopen.demonii.com%3A1337","udp%3A%2F%2Ftracker.coppersurfer.tk%3A6969","udp%3A%2F%2Fexodus.desync.com%3A6969"],"infoHash":"622fe7e35bd4b6fca83bad74f21dcb223de4daa0","infoHashBuffer":{"type":"Buffer","data":[98,47,231,227,91,212,182,252,168,59,173,116,242,29,203,34,61,228,218,160]},"announce":[],"urlList":[]}}